<svg width="321" height="260" viewBox="0 0 321 260" fill="none" xmlns="http://www.w3.org/2000/svg">
<path d="M0.285 260V219.85H63.43C50.7767 208.657 40.9217 195.273 33.865 179.7C26.8083 163.883 23.28 146.242 23.28 126.775C23.28 108.282 26.6867 91.37 33.5 76.04C40.3133 60.4667 49.925 47.0833 62.335 35.89C74.745 24.6967 89.2233 16.0583 105.77 9.97498C122.56 3.89165 140.688 0.849986 160.155 0.849986C179.622 0.849986 197.628 3.89165 214.175 9.97498C230.722 16.0583 245.2 24.6967 257.61 35.89C270.263 47.0833 279.997 60.4667 286.81 76.04C293.623 91.37 297.03 108.282 297.03 126.775C297.03 146.242 293.38 163.883 286.08 179.7C279.023 195.273 269.29 208.657 256.88 219.85H320.025V260H190.085V222.77C209.308 213.037 224.03 200.018 234.25 183.715C244.47 167.412 249.58 149.527 249.58 130.06C249.58 116.92 247.39 104.997 243.01 94.29C238.63 83.34 232.425 74.0933 224.395 66.55C216.608 58.7633 207.24 52.8017 196.29 48.665C185.34 44.5283 173.295 42.46 160.155 42.46C147.015 42.46 134.97 44.5283 124.02 48.665C113.07 52.8017 103.58 58.7633 95.55 66.55C87.7633 74.0933 81.68 83.34 77.3 94.29C72.92 104.997 70.73 116.92 70.73 130.06C70.73 149.527 75.84 167.533 86.06 184.08C96.28 200.383 111.002 213.28 130.225 222.77V260H0.285Z" fill="black"/>
</svg>
